<?xml version="1.0" encoding="UTF-8"?>
<!DOCTYPE svg PUBLIC "-//W3C//DTD SVG 1.1//EN" "http://www.w3.org/Graphics/SVG/1.1/DTD/svg11.dtd">
<!-- Creator: CorelDRAW 2020 (64-Bit) -->
<svg xmlns="http://www.w3.org/2000/svg" xml:space="preserve" width="45.7728mm" height="21.1666mm" version="1.1" style="shape-rendering:geometricPrecision; text-rendering:geometricPrecision; image-rendering:optimizeQuality; fill-rule:evenodd; clip-rule:evenodd"
viewBox="0 0 4577.28 2116.66"
 xmlns:xlink="http://www.w3.org/1999/xlink"
 xmlns:xodm="http://www.corel.com/coreldraw/odm/2003">
 <defs>
  <style type="text/css">
   <![CDATA[
    .str0 {stroke:black;stroke-width:52.92;stroke-miterlimit:22.9256}
    .fil1 {fill:black;fill-rule:nonzero}
    .fil2 {fill:#FFE34E;fill-rule:nonzero}
    .fil3 {fill:#FFFCEB;fill-rule:nonzero}
    .fil0 {fill:white;fill-rule:nonzero}
   ]]>
  </style>
 </defs>
 <g id="Capa_x0020_1">
  <metadata id="CorelCorpID_0Corel-Layer"/>
  <g id="_1462253686720">
   <path class="fil0" d="M21.02 6.08l4486.81 0c24.95,0 45.19,20.1 45.19,44.89l0 2026.88c0,24.79 -20.24,44.89 -45.19,44.89l-4486.81 0c-24.95,0 -45.18,-20.1 -45.18,-44.89l0 -2026.88c0,-24.79 20.23,-44.89 45.18,-44.89z"/>
   <path class="fil1" d="M760.11 1778.96c11.36,58.47 -31.47,113.99 -95.89,124.3 -64.42,10.32 -125.59,-28.56 -136.95,-87.04 -11.36,-58.47 31.47,-113.99 95.89,-124.31 64.42,-10.31 125.59,28.57 136.95,87.05zm561.57 -198.84c-64.42,10.3 -107.25,65.83 -95.89,124.3 11.36,58.47 72.53,97.35 136.95,87.04 64.42,-10.31 107.25,-65.83 95.89,-124.3 -11.36,-58.48 -72.53,-97.36 -136.95,-87.04zm342.91 -331.65c-39.3,-16.95 -87.61,-1.96 -105.65,32.89l-7.62 14.3c-10.41,20.55 -32.42,34.97 -56.48,38.82l-1126.95 180.37c-24.06,3.85 -49.39,-2.99 -67.7,-18.95l-12.55 -11.06c-30.08,-27.15 -81.12,-26.25 -111.67,1.89 -30.68,27.43 -28.77,74.34 2.08,101.36l12.56 11.07c54,47.29 130.92,68.39 204.65,56.59l1126.95 -180.37c73.73,-11.8 138.06,-55.51 170.99,-116.72l7.62 -14.29c18.82,-34.98 2.94,-79.65 -36.23,-95.9z"/>
   <path class="fil2 str0" d="M1055.12 816.62l1.5 0.77 1.15 -1.15 143.5 -142.95 131.21 -18.86c34.45,-4.96 69.63,2.72 97.79,21.3 28.16,18.56 46.98,46.49 52.41,77.6 11.36,65.06 -37.01,125.81 -109.18,136.19l-1055.47 151.74c-34.45,4.95 -69.63,-2.73 -97.79,-21.3 -28.16,-18.57 -46.98,-46.49 -52.41,-77.6 -5.43,-31.11 2.97,-62.95 23.42,-88.5 20.47,-25.57 51.31,-42.74 85.76,-47.69l592.97 -85.25 185.14 95.7zm-863.44 -125.48c-0.07,-0.49 -0.14,-1.06 -0.22,-1.71 -0.31,-2.61 -0.69,-6.47 -0.96,-11.41 -0.55,-9.9 -0.68,-24.15 1.01,-41.53 3.37,-34.77 14.01,-82.03 43.1,-131.96 58.12,-99.76 190.18,-210.65 486.55,-253.26 296.37,-42.61 459.72,25.81 548.96,104.39 44.65,39.32 70.86,81.29 85.91,113.41 7.52,16.05 12.26,29.65 15.1,39.21 1.42,4.78 2.37,8.56 2.97,11.12 0.15,0.64 0.27,1.21 0.38,1.69l-1182.8 170.05zm320.98 690.42c-108.46,15.59 -209.52,-51.29 -226.62,-149.29l-10.07 -57.67 1182.92 -170.07 10.07 57.67c17.1,98 -56.26,189.96 -164.71,205.55l-791.59 113.81z"/>
   <path class="fil3" d="M1946.74 438.68c25.19,0 45.45,7.12 60.76,21.35 15.81,14.23 23.72,31.9 23.72,53.01 0,21.59 -7.91,39.51 -23.72,53.74 -15.31,14.24 -35.57,21.35 -60.76,21.35 -25.69,0 -46.44,-7.11 -62.25,-21.35 -15.31,-14.23 -22.97,-32.15 -22.97,-53.74 0,-21.6 7.66,-39.27 22.97,-53.01 15.81,-14.23 36.56,-21.35 62.25,-21.35zm-62.25 200.25l123.75 0 17.05 351.19 -157.84 0 17.04 -351.19zm672.73 -123.68c0,31.41 -7.41,60.12 -22.23,86.13 -14.32,25.53 -36.3,46.14 -65.94,61.85 -29.15,15.21 -64.96,22.82 -107.45,22.82l-71.87 0 0 175.22 -145.25 0 0 -519.04 217.12 0c42,0 77.56,7.36 106.7,22.09 29.64,14.72 51.87,35.09 66.69,61.11 14.82,26.01 22.23,55.95 22.23,89.82zm-209.7 55.95c41.01,0 61.5,-18.65 61.5,-55.95 0,-37.8 -20.49,-56.69 -61.5,-56.69l-57.79 0 0 112.64 57.79 0zm665.25 78.78c0,11.28 -0.74,22.57 -2.21,33.86l-274.93 0c1.47,22.58 7.66,39.51 18.53,50.8 11.36,10.8 25.69,16.2 42.97,16.2 24.22,0 41.5,-10.8 51.87,-32.39l154.87 0c-6.42,28.46 -19.02,53.99 -37.77,76.56 -18.3,22.09 -41.51,39.52 -69.68,52.28 -28.15,12.76 -59.28,19.14 -93.35,19.14 -41,0 -77.58,-8.59 -109.68,-25.77 -31.61,-17.18 -56.57,-41.72 -74.85,-73.62 -17.78,-31.91 -26.66,-69.45 -26.66,-112.65 0,-43.19 8.88,-80.49 26.66,-111.9 17.8,-31.91 42.49,-56.45 74.1,-73.63 32.13,-17.18 68.93,-25.76 110.43,-25.76 40.98,0 77.31,8.34 108.92,25.03 31.63,16.69 56.32,40.73 74.1,72.15 17.78,30.92 26.68,67.49 26.68,109.7zm-148.2 -36.08c0,-17.67 -5.92,-31.41 -17.78,-41.23 -11.86,-10.31 -26.68,-15.46 -44.46,-15.46 -17.78,0 -32.38,4.91 -43.72,14.73 -11.36,9.32 -18.77,23.31 -22.23,41.96l128.19 0zm183.92 40.49c0,-42.7 7.66,-80 22.98,-111.9 15.81,-31.91 37.3,-56.45 64.48,-73.63 27.15,-17.18 57.29,-25.76 90.39,-25.76 26.68,0 50.4,5.64 71.14,16.93 21.24,10.8 37.8,25.77 49.66,44.91l0 -188.48 145.96 0 0 544.81 -145.96 0 0 -57.42c-11.37,19.14 -27.43,34.36 -48.17,45.65 -20.76,11.28 -45.21,16.93 -73.38,16.93 -33.1,0 -63.21,-8.59 -90.39,-25.77 -26.68,-17.18 -47.92,-41.72 -63.73,-73.62 -15.32,-32.4 -22.98,-69.95 -22.98,-112.65zm299.37 0c0,-26.5 -7.41,-47.36 -22.23,-62.58 -14.32,-15.21 -32.1,-22.82 -53.34,-22.82 -21.73,0 -39.76,7.61 -54.11,22.82 -14.32,14.73 -21.48,35.59 -21.48,62.58 0,26.51 7.16,47.61 21.48,63.32 14.35,15.22 32.38,22.82 54.11,22.82 21.24,0 39.02,-7.6 53.34,-22.82 14.82,-15.22 22.23,-36.32 22.23,-63.32zm301.38 -244.43c-25.69,0 -46.45,-6.87 -62.24,-20.61 -15.32,-14.23 -22.98,-31.9 -22.98,-53.01 0,-21.59 7.66,-39.51 22.98,-53.74 15.79,-14.24 36.55,-21.35 62.24,-21.35 25.19,0 45.46,7.11 60.75,21.35 15.81,14.23 23.72,32.15 23.72,53.74 0,21.11 -7.91,38.78 -23.72,53.01 -15.29,13.74 -35.56,20.61 -60.75,20.61zm71.87 38.29l0 413.02 -145.23 0 0 -413.02 145.23 0zm227.95 72.89c16.31,-23.56 36.08,-42.21 59.28,-55.96 23.23,-13.74 48.17,-20.61 74.85,-20.61l0 153.87 -40.76 0c-31.6,0 -55.08,6.13 -70.39,18.41 -15.32,12.27 -22.98,33.62 -22.98,64.05l0 180.37 -145.24 0 0 -413.02 145.24 0 0 72.89zm-2141.63 898.66c0,-42.7 7.65,-80 22.97,-111.9 15.81,-31.91 37.05,-56.45 63.73,-73.63 27.17,-17.17 57.3,-25.76 90.4,-25.76 28.65,0 53.35,5.64 74.1,16.93 20.75,11.29 36.81,26.5 48.17,45.65l0 -57.43 145.25 0 0 413.03 -145.25 0 0 -57.43c-11.36,19.14 -27.67,34.36 -48.91,45.65 -20.75,11.28 -45.2,16.93 -73.36,16.93 -33.1,0 -63.23,-8.59 -90.4,-25.77 -26.68,-17.18 -47.92,-41.72 -63.73,-73.62 -15.32,-32.4 -22.97,-69.94 -22.97,-112.65zm299.37 0c0,-26.5 -7.41,-47.36 -22.23,-62.58 -14.33,-15.21 -32.11,-22.82 -53.35,-22.82 -21.74,0 -39.77,7.61 -54.1,22.82 -14.33,14.73 -21.49,35.59 -21.49,62.58 0,26.51 7.16,47.62 21.49,63.32 14.33,15.22 32.36,22.82 54.1,22.82 21.24,0 39.02,-7.6 53.35,-22.82 14.82,-15.22 22.23,-36.32 22.23,-63.32zm501.44 -209.82c47.42,0 84.97,15.95 112.64,47.85 28.15,31.42 42.23,74.12 42.23,128.11l0 240.75 -145.23 0 0 -221.61c0,-23.56 -6.19,-41.97 -18.52,-55.22 -12.36,-13.74 -28.92,-20.61 -49.66,-20.61 -21.73,0 -38.79,6.87 -51.13,20.61 -12.35,13.25 -18.52,31.66 -18.52,55.22l0 221.61 -145.25 0 0 -544.82 145.25 0 0 190.69c12.83,-18.65 30.14,-33.62 51.87,-44.91 22.23,-11.78 47.67,-17.67 76.32,-17.67zm427.98 421.86c-41.5,0 -78.8,-8.59 -111.9,-25.77 -32.6,-17.18 -58.28,-41.72 -77.06,-73.62 -18.77,-31.9 -28.17,-69.45 -28.17,-112.65 0,-42.7 9.4,-80 28.17,-111.9 19.27,-31.91 45.21,-56.45 77.81,-73.63 33.1,-17.17 70.4,-25.76 111.9,-25.76 41.48,0 78.53,8.59 111.15,25.76 33.1,17.18 59.04,41.72 77.81,73.63 19.25,31.9 28.89,69.2 28.89,111.9 0,42.71 -9.64,80.25 -28.89,112.65 -18.77,31.9 -44.71,56.44 -77.81,73.62 -33.12,17.18 -70.39,25.77 -111.9,25.77zm0 -125.16c20.25,0 37.05,-7.36 50.38,-22.09 13.83,-15.21 20.77,-36.81 20.77,-64.79 0,-27.97 -6.94,-49.32 -20.77,-64.05 -13.33,-14.72 -29.89,-22.08 -49.63,-22.08 -19.77,0 -36.33,7.36 -49.66,22.08 -13.33,14.73 -20.02,36.08 -20.02,64.05 0,28.47 6.44,50.07 19.28,64.79 12.85,14.73 29.39,22.09 49.65,22.09zm422.93 -220.13c16.31,-23.56 36.06,-42.21 59.28,-55.96 23.23,-13.74 48.17,-20.61 74.85,-20.61l0 153.87 -40.76 0c-31.63,0 -55.08,6.14 -70.39,18.41 -15.32,12.27 -22.98,33.62 -22.98,64.05l0 180.38 -145.25 0 0 -413.03 145.25 0 0 72.89zm162.48 133.25c0,-42.7 7.66,-80 22.98,-111.9 15.81,-31.91 37.05,-56.45 63.73,-73.63 27.16,-17.17 57.29,-25.76 90.39,-25.76 28.65,0 53.36,5.64 74.1,16.93 20.77,11.29 36.81,26.5 48.17,45.65l0 -57.43 145.25 0 0 413.03 -145.25 0 0 -57.43c-11.36,19.14 -27.65,34.36 -48.91,45.65 -20.74,11.28 -45.19,16.93 -73.36,16.93 -33.1,0 -63.23,-8.59 -90.39,-25.77 -26.68,-17.18 -47.92,-41.72 -63.73,-73.62 -15.32,-32.4 -22.98,-69.94 -22.98,-112.65zm299.37 0c0,-26.5 -7.41,-47.36 -22.23,-62.58 -14.32,-15.21 -32.1,-22.82 -53.34,-22.82 -21.76,0 -39.78,7.61 -54.11,22.82 -14.32,14.73 -21.48,35.59 -21.48,62.58 0,26.51 7.16,47.62 21.48,63.32 14.33,15.22 32.35,22.82 54.11,22.82 21.24,0 39.02,-7.6 53.34,-22.82 14.82,-15.22 22.23,-36.32 22.23,-63.32zm422.16 -338.66l-17.04 351.18 -123.76 0 -17.03 -351.18 157.83 0zm-78.55 551.44c-25.69,0 -46.43,-6.88 -62.25,-20.62 -15.31,-14.23 -22.97,-32.15 -22.97,-53.74 0,-21.6 7.66,-39.52 22.97,-53.75 15.82,-14.23 36.56,-21.35 62.25,-21.35 25.19,0 45.45,7.12 60.77,21.35 15.79,14.23 23.7,32.15 23.7,53.75 0,21.1 -7.91,38.77 -23.7,53.01 -15.32,14.23 -35.58,21.35 -60.77,21.35z"/>
   <path class="fil1" d="M2007.5 460.03l-18.52 19.67 0.16 0.14 0.16 0.15 18.2 -19.96zm0 106.75l-18.2 -19.96 -0.16 0.15 -0.16 0.14 18.52 19.67zm-123.01 0l-18.52 19.67 0.16 0.15 0.16 0.14 18.2 -19.96zm0 -106.75l18.17 19.99 0.02 -0.02 0.02 -0.01 -18.21 -19.96zm0 178.9l0 -26.93 -25.83 0 -1.25 25.64 27.08 1.29zm123.75 0l27.08 -1.29 -1.24 -25.64 -25.84 0 0 26.93zm17.05 351.19l0 26.93 28.45 0 -1.37 -28.23 -27.08 1.3zm-157.84 0l-27.08 -1.3 -1.37 28.23 28.45 0 0 -26.93zm79.29 -524.51c19.78,0 32.93,5.43 42.24,14.09l37.04 -39.34c-21.31,-19.81 -48.68,-28.62 -79.28,-28.62l0 53.87zm42.56 14.38c10.16,9.15 14.81,19.58 14.81,33.05l54.22 0c0,-28.75 -11.17,-53.66 -32.62,-72.97l-36.41 39.92zm14.81 33.05c0,14.15 -4.8,24.76 -14.81,33.78l36.41 39.92c21.6,-19.45 32.62,-44.67 32.62,-73.7l-54.22 0zm-15.13 34.07c-9.31,8.66 -22.46,14.09 -42.24,14.09l0 53.87c30.6,0 57.97,-8.81 79.28,-28.62l-37.04 -39.34zm-42.24 14.09c-20.41,0 -34.2,-5.51 -44.04,-14.38l-36.41 39.92c21.77,19.6 49.48,28.33 80.45,28.33l0 -53.87zm-43.73 -14.09c-9.61,-8.93 -14.38,-19.62 -14.38,-34.07l-54.22 0c0,28.74 10.54,53.88 31.56,73.41l37.04 -39.34zm-14.38 -34.07c0,-14.44 4.74,-24.69 14.03,-33.02l-36.34 -39.98c-21.34,19.15 -31.91,44.24 -31.91,73l54.22 0zm14.07 -33.05c9.84,-8.87 23.63,-14.38 44.04,-14.38l0 -53.87c-30.97,0 -58.68,8.73 -80.45,28.33l36.41 39.92zm-18.21 185.88l123.75 0 0 -53.87 -123.75 0 0 53.87zm96.67 -25.64l17.05 351.18 54.16 -2.59 -17.05 -351.18 -54.16 2.59zm44.13 322.95l-157.84 0 0 53.87 157.84 0 0 -53.87zm-130.76 28.23l17.04 -351.18 -54.16 -2.59 -17.04 351.18 54.16 2.59zm640.46 -390.03l-23.58 -13.26 -0.05 0.07 -0.04 0.08 23.67 13.11zm-65.94 61.85l12.6 23.84 0.09 -0.04 0.07 -0.04 -12.76 -23.76zm-179.32 22.82l0 -26.93 -27.11 0 0 26.93 27.11 0zm0 175.22l0 26.94 27.11 0 0 -26.94 -27.11 0zm-145.25 0l-27.11 0 0 26.94 27.11 0 0 -26.94zm0 -519.04l0 -26.93 -27.11 0 0 26.93 27.11 0zm323.82 22.09l-12.27 24.01 0.07 0.04 0.09 0.04 12.11 -24.09zm66.69 61.11l-23.58 13.26 0 0 23.58 -13.26zm-245.26 33.13l0 -26.94 -27.11 0 0 26.94 27.11 0zm0 112.64l-27.11 0 0 26.93 27.11 0 0 -26.93zm240.38 -55.95c0,27 -6.3,51.11 -18.7,72.87l47.19 26.53c17.24,-30.27 25.73,-63.59 25.73,-99.4l-54.22 0zm-18.79 73.02c-11.44,20.39 -29.31,37.57 -55.04,51.19l25.53 47.53c33.57,-17.78 59.67,-41.83 76.86,-72.49l-47.35 -26.23zm-54.88 51.11c-24.29,12.69 -55.51,19.74 -94.84,19.74l0 53.87c45.63,0 86.05,-8.17 120.05,-25.92l-25.21 -47.69zm-94.84 19.74l-71.87 0 0 53.87 71.87 0 0 -53.87zm-98.98 26.93l0 175.22 54.22 0 0 -175.22 -54.22 0zm27.11 148.29l-145.25 0 0 53.87 145.25 0 0 -53.87zm-118.14 26.93l0 -519.04 -54.22 0 0 519.04 54.22 0zm-27.11 -492.1l217.12 0 0 -53.87 -217.12 0 0 53.87zm217.12 0c38.9,0 70.01,6.82 94.43,19.16l24.56 -48.02c-33.87,-17.12 -73.9,-25.01 -118.99,-25.01l0 53.87zm94.59 19.24c25.33,12.58 43.31,29.4 55.22,50.28l47.19 -26.53c-17.76,-31.15 -44.21,-55.07 -78.17,-71.93l-24.24 48.18zm55.22 50.28c12.22,21.46 18.7,46.71 18.7,76.56l54.22 0c0,-37.89 -8.31,-72.52 -25.73,-103.09l-47.19 26.53zm-163.89 159.44c24.13,0 47.27,-5.43 64.44,-21.05 17.62,-16.04 24.17,-38.39 24.17,-61.83l-54.22 0c0,13.85 -3.68,19.48 -6.58,22.1 -3.32,3.02 -10.93,6.91 -27.81,6.91l0 53.87zm88.61 -82.88c0,-23.59 -6.48,-46.09 -24.04,-62.27 -17.17,-15.83 -40.37,-21.36 -64.57,-21.36l0 53.87c16.81,0 24.36,3.92 27.7,6.98 2.94,2.72 6.69,8.57 6.69,22.78l54.22 0zm-88.61 -83.63l-57.79 0 0 53.87 57.79 0 0 -53.87zm-84.9 26.94l0 112.64 54.22 0 0 -112.64 -54.22 0zm27.11 139.57l57.79 0 0 -53.87 -57.79 0 0 53.87zm720.83 85.71l0 26.94 23.79 0 3.07 -23.45 -26.86 -3.49zm-274.93 0l0 -26.93 -28.94 0 1.88 28.69 27.06 -1.76zm18.53 50.8l-19.59 18.62 0.41 0.43 0.43 0.42 18.75 -19.47zm94.84 -16.19l0 -26.94 -17.1 0 -7.37 15.33 24.47 11.61zm154.87 0l26.46 5.89 7.41 -32.83 -33.87 0 0 26.94zm-37.77 76.56l-20.92 -17.15 0 0.02 -0.03 0.03 20.95 17.1zm-69.68 52.28l11.25 24.5 0 0 -11.25 -24.5zm-203.03 -6.63l-13.02 23.63 0.09 0.04 0.07 0.05 12.86 -23.72zm-74.85 -73.62l-23.7 13.05 0.07 0.13 0.06 0.14 23.57 -13.32zm0 -224.55l23.63 13.2 0.04 -0.07 0.05 -0.08 -23.72 -13.05zm74.1 -73.63l-12.85 -23.71 -0.07 0.04 -0.07 0.04 12.99 23.63zm219.35 -0.73l12.72 -23.79 0 0 -12.72 23.79zm74.1 72.15l-23.63 13.2 0.04 0.08 0.05 0.08 23.54 -13.36zm-121.52 73.62l0 26.94 27.11 0 0 -26.94 -27.11 0zm-17.78 -41.23l-17.85 20.27 0.23 0.22 0.27 0.2 17.35 -20.69zm-88.18 -0.73l17.26 20.76 0.27 -0.22 0.25 -0.22 -17.78 -20.32zm-22.23 41.96l-26.68 -4.88 -5.9 31.82 32.58 0 0 -26.94zm249.28 36.08c0,10.11 -0.65,20.24 -1.99,30.38l53.75 6.97c1.65,-12.44 2.46,-24.89 2.46,-37.35l-54.22 0zm24.9 6.93l-274.93 0 0 53.87 274.93 0 0 -53.87zm-301.99 28.69c1.72,26.12 9.1,50.13 26,67.66l39.18 -37.24c-4.86,-5.04 -9.83,-14.9 -11.07,-33.93l-54.11 3.51zm26.84 68.51c16.94,16.09 38.2,23.67 61.72,23.67l0 -53.88c-11.07,0 -18.44,-3.22 -24.24,-8.72l-37.48 38.93zm61.72 23.67c16.24,0 31.83,-3.67 45.55,-12.23 13.73,-8.57 23.79,-20.94 30.79,-35.5l-48.94 -23.21c-3.36,7.04 -7.14,10.87 -10.7,13.1 -3.57,2.23 -8.75,3.96 -16.7,3.96l0 53.88zm51.87 -32.4l154.87 0 0 -53.87 -154.87 0 0 53.87zm128.42 -32.83c-5.47,24.32 -16.16,45.99 -32.24,65.31l41.81 34.31c21.47,-25.83 35.99,-55.21 43.34,-87.83l-52.91 -11.79zm-32.27 65.36c-15.47,18.68 -35.29,33.68 -59.98,44.87l22.5 49.01c31.63,-14.33 58.27,-34.18 79.35,-59.67l-41.87 -34.21zm-59.98 44.87c-24.26,11.01 -51.51,16.71 -82.1,16.71l0 53.87c37.57,0 72.57,-7.05 104.6,-21.57l-22.5 -49.01zm-82.1 16.71c-37.09,0 -69.13,-7.73 -96.83,-22.55l-25.71 47.44c36.53,19.54 77.61,28.98 122.54,28.98l0 -53.87zm-96.67 -22.46c-27.09,-14.72 -48.44,-35.64 -64.3,-63.32l-47.13 26.65c20.72,36.13 49.26,64.29 85.4,83.93l26.03 -47.26zm-64.14 -63.04c-15.18,-27.24 -23.27,-60.13 -23.27,-99.6l-54.22 0c0,46.92 9.67,89.12 30.07,125.7l47.42 -26.1zm-23.27 -99.6c0,-39.48 8.09,-72.05 23.18,-98.7l-47.26 -26.41c-20.47,36.18 -30.14,78.21 -30.14,125.11l54.22 0zm23.27 -98.85c15.34,-27.53 36.37,-48.36 63.39,-63.05l-26 -47.26c-36.22,19.68 -64.59,47.93 -84.81,84.21l47.42 26.1zm63.24 -62.96c27.65,-14.79 59.93,-22.55 97.57,-22.55l0 -53.87c-45.36,0 -86.71,9.42 -123.28,28.99l25.71 47.43zm97.57 -22.55c37.21,0 69.04,7.55 96.2,21.88l25.44 -47.57c-36.06,-19.04 -76.86,-28.18 -121.64,-28.18l0 53.87zm96.2 21.88c26.97,14.24 47.92,34.59 63.19,61.57l47.26 -26.41c-20.29,-35.84 -48.75,-63.59 -85.01,-82.73l-25.44 47.57zm63.28 61.73c15.05,26.16 23.11,57.94 23.11,96.34l54.22 0c0,-46.03 -9.71,-87.38 -30.25,-123.07l-47.08 26.73zm-70.87 60.26c0,-24.3 -8.52,-46.18 -27.54,-61.92l-34.7 41.38c4.67,3.89 8.02,9.5 8.02,20.54l54.22 0zm-27.04 -61.5c-17.45,-15.16 -38.86,-22.12 -62.31,-22.12l0 53.87c12.11,0 20.33,3.34 26.61,8.79l35.7 -40.54zm-62.31 -22.12c-23.09,0 -44.35,6.5 -61.52,21.33l35.58 40.65c5.56,-4.81 13.44,-8.11 25.94,-8.11l0 -53.87zm-61 20.89c-17.58,14.42 -27.36,34.84 -31.63,57.85l53.34 9.76c2.64,-14.29 7.68,-21.85 12.83,-26.08l-34.54 -41.53zm-4.95 89.67l128.19 0 0 -53.87 -128.19 0 0 53.87zm335.09 -98.35l-24.33 -11.9 -0.07 0.15 -0.07 0.15 24.47 11.6zm64.48 -73.63l-14.58 -22.72 0 0 14.58 22.72zm161.53 -8.83l-13.01 23.62 0.31 0.19 0.34 0.17 12.36 -23.98zm49.66 44.91l-23.09 14.11 50.2 81.05 0 -95.16 -27.11 0zm0 -188.48l0 -26.93 -27.11 0 0 26.93 27.11 0zm145.96 0l27.12 0 0 -26.93 -27.12 0 0 26.93zm0 544.81l0 26.94 27.12 0 0 -26.94 -27.12 0zm-145.96 0l-27.11 0 0 26.94 27.11 0 0 -26.94zm0 -57.42l27.11 0 0 -98.7 -50.47 85.02 23.36 13.68zm-48.17 45.65l-13.04 -23.63 0 0 13.04 23.63zm-163.77 -8.84l-14.75 22.6 0.09 0.06 0.11 0.06 14.55 -22.72zm-63.73 -73.62l-24.54 11.45 0.11 0.22 0.1 0.22 24.33 -11.89zm254.16 -175.23l-19.79 18.41 0.16 0.16 0.15 0.17 19.48 -18.74zm-107.45 0l19.5 18.72 0.16 -0.15 0.15 -0.16 -19.81 -18.41zm0 125.9l-20.08 18.09 0.15 0.16 0.14 0.15 19.79 -18.4zm107.45 0l-19.48 -18.73 -0.15 0.16 -0.16 0.17 19.79 18.4zm-250.03 -63.32c0,-39.51 7.09,-72.7 20.33,-100.31l-48.93 -23.19c-17.37,36.2 -25.62,77.61 -25.62,123.5l54.22 0zm20.2 -100.01c13.85,-27.98 32.17,-48.55 54.69,-62.79l-29.12 -45.45c-31.81,20.12 -56.48,48.62 -74.23,84.45l48.66 23.79zm54.69 -62.79c22.69,-14.35 47.76,-21.56 75.85,-21.56l0 -53.87c-38.09,0 -73.32,9.97 -104.97,29.98l29.12 45.45zm75.85 -21.56c22.72,0 41.86,4.77 58.13,13.62l26.02 -47.25c-25.21,-13.72 -53.52,-20.24 -84.15,-20.24l0 53.87zm58.78 13.98c17.08,8.68 29.82,20.34 38.93,35.04l46.18 -28.23c-14.62,-23.58 -35,-41.85 -60.39,-54.77l-24.72 47.96zm89.13 20.93l0 -188.48 -54.22 0 0 188.48 54.22 0zm-27.11 -161.54l145.96 0 0 -53.87 -145.96 0 0 53.87zm118.85 -26.94l0 544.81 54.23 0 0 -544.81 -54.23 0zm27.11 517.88l-145.96 0 0 53.87 145.96 0 0 -53.87zm-118.85 26.93l0 -57.42 -54.22 0 0 57.42 54.22 0zm-50.47 -71.1c-8.75,14.72 -21.1,26.6 -37.85,35.7l26.05 47.25c24.79,-13.48 44.51,-32.02 58.49,-55.59l-46.69 -27.36zm-37.85 35.7c-16.06,8.74 -35.85,13.62 -60.34,13.62l0 53.87c31.86,0 60.95,-6.4 86.39,-20.24l-26.05 -47.25zm-60.34 13.62c-28.08,0 -53.14,-7.2 -75.84,-21.55l-29.1 45.44c31.63,20.01 66.85,29.98 104.94,29.98l0 -53.87zm-75.64 -21.43c-22.07,-14.22 -40.23,-34.82 -54.15,-62.92l-48.66 23.79c17.71,35.71 42.04,64.19 73.31,84.33l29.5 -45.2zm-53.95 -62.48c-13.33,-28.18 -20.4,-61.69 -20.4,-101.19l-54.22 0c0,45.91 8.25,87.5 25.55,124.1l49.07 -22.91zm278.97 -101.19c0,-31.64 -8.97,-59.88 -29.84,-81.31l-38.98 37.47c8.77,9 14.6,22.48 14.6,43.84l54.22 0zm-29.53 -80.98c-19.54,-20.74 -44.53,-31.35 -73.15,-31.35l0 53.87c13.85,0 24.42,4.59 33.55,14.29l39.6 -36.81zm-73.15 -31.35c-28.94,0 -54.25,10.47 -73.9,31.35l39.6 36.81c9,-9.56 19.75,-14.29 34.3,-14.29l0 -53.87zm-73.58 31.03c-20.63,21.19 -29.13,49.62 -29.13,81.3l54.23 0c0,-22.3 5.82,-35.59 13.87,-43.86l-38.97 -37.44zm-29.13 81.3c0,31.45 8.61,59.59 28.52,81.41l40.19 -36.18c-8.77,-9.6 -14.48,-23.66 -14.48,-45.23l-54.23 0zm28.81 81.72c19.65,20.88 44.96,31.36 73.9,31.36l0 -53.87c-14.55,0 -25.3,-4.74 -34.3,-14.29l-39.6 36.8zm73.9 31.36c28.62,0 53.61,-10.62 73.15,-31.36l-39.6 -36.8c-9.13,9.69 -19.7,14.29 -33.55,14.29l0 53.87zm72.84 -31.03c20.94,-21.52 29.84,-50.07 29.84,-82.05l-54.22 0c0,22.01 -5.92,35.67 -14.6,44.59l38.98 37.46zm241.87 -347.09l-18.53 19.67 0.32 0.31 0.34 0.29 17.87 -20.27zm0 -106.75l-18.21 -19.96 -0.16 0.14 -0.16 0.15 18.53 19.67zm122.99 0l-18.5 19.67 0.16 0.14 0.15 0.15 18.19 -19.96zm0 106.75l18.19 19.99 0.02 -0.02 0 -0.01 -18.21 -19.96zm11.12 58.9l27.11 0 0 -26.94 -27.11 0 0 26.94zm0 413.02l0 26.94 27.11 0 0 -26.94 -27.11 0zm-145.23 0l-27.11 0 0 26.94 27.11 0 0 -26.94zm0 -413.02l0 -26.94 -27.11 0 0 26.94 27.11 0zm73.36 -65.22c-20.65,0 -34.57,-5.41 -44.39,-13.95l-35.72 40.54c21.8,18.94 49.38,27.28 80.11,27.28l0 -53.87zm-43.74 -13.35c-9.74,-9.07 -14.37,-19.58 -14.37,-33.34l-54.22 0c0,28.45 10.69,53.28 31.56,72.68l37.03 -39.34zm-14.37 -33.34c0,-14.45 4.77,-25.14 14.37,-34.07l-37.03 -39.34c-21.01,19.53 -31.56,44.67 -31.56,73.41l54.22 0zm14.05 -33.78c9.86,-8.87 23.66,-14.38 44.06,-14.38l0 -53.87c-30.97,0 -58.67,8.72 -80.45,28.33l36.39 39.92zm44.06 -14.38c19.79,0 32.92,5.43 42.25,14.09l37.03 -39.34c-21.31,-19.81 -48.67,-28.62 -79.28,-28.62l0 53.87zm42.56 14.38c10.01,9.01 14.8,19.63 14.8,33.78l54.22 0c0,-29.03 -11.02,-54.25 -32.62,-73.7l-36.4 39.92zm14.8 33.78c0,13.47 -4.63,23.9 -14.8,33.05l36.4 39.92c21.46,-19.32 32.62,-44.22 32.62,-72.97l-54.22 0zm-14.77 33.02c-9.29,8.34 -22.55,13.67 -42.59,13.67l0 53.87c30.34,0 57.59,-8.41 78.94,-27.56l-36.35 -39.98zm2.17 78.89l0 413.02 54.22 0 0 -413.02 -54.22 0zm27.11 386.09l-145.23 0 0 53.87 145.23 0 0 -53.87zm-118.12 26.93l0 -413.02 -54.22 0 0 413.02 54.22 0zm-27.11 -386.09l145.23 0 0 -53.87 -145.23 0 0 53.87zm373.18 45.96l-27.11 0 0 86.72 49.45 -71.47 -22.34 -15.25zm134.13 -76.57l27.11 0 0 -26.94 -27.11 0 0 26.94zm0 153.87l0 26.94 27.11 0 0 -26.94 -27.11 0zm-111.15 18.41l17.01 20.96 0 0 -17.01 -20.96zm-22.98 244.42l0 26.94 27.11 0 0 -26.94 -27.11 0zm-145.24 0l-27.11 0 0 26.94 27.11 0 0 -26.94zm0 -413.02l0 -26.94 -27.11 0 0 26.94 27.11 0zm145.24 0l27.11 0 0 -26.94 -27.11 0 0 26.94zm22.34 88.14c14.24,-20.56 31.18,-36.44 50.81,-48.07l-27.74 -46.28c-26.79,15.86 -49.36,37.29 -67.75,63.84l44.68 30.51zm50.81 -48.07c19.1,-11.29 39.25,-16.82 60.98,-16.82l0 -53.87c-31.63,0 -61.36,8.22 -88.72,24.41l27.74 46.28zm33.87 -43.75l0 153.87 54.22 0 0 -153.87 -54.22 0zm27.11 126.94l-40.76 0 0 53.87 40.76 0 0 -53.87zm-40.76 0c-34.29,0 -65.11,6.51 -87.4,24.37l34.02 41.93c8.34,-6.67 24.47,-12.43 53.38,-12.43l0 -53.87zm-87.4 24.37c-24.58,19.69 -33.08,51.01 -33.08,85.02l54.22 0c0,-26.86 6.82,-38.24 12.88,-43.09l-34.02 -41.93zm-33.08 85.02l0 180.37 54.22 0 0 -180.37 -54.22 0zm27.11 153.44l-145.24 0 0 53.87 145.24 0 0 -53.87zm-118.13 26.93l0 -413.02 -54.22 0 0 413.02 54.22 0zm-27.11 -386.09l145.24 0 0 -53.87 -145.24 0 0 53.87zm118.13 -26.93l0 72.89 54.22 0 0 -72.89 -54.22 0zm-2091.55 859.65l-24.32 -11.9 -0.08 0.15 -0.07 0.15 24.47 11.6zm63.73 -73.63l-14.56 -22.72 -0.1 0.06 -0.09 0.06 14.75 22.6zm164.5 -8.83l-13.02 23.62 0 0 13.02 -23.62zm48.17 45.65l-23.35 13.68 50.46 85.01 0 -98.69 -27.11 0zm0 -57.43l0 -26.94 -27.11 0 0 26.94 27.11 0zm145.25 0l27.11 0 0 -26.94 -27.11 0 0 26.94zm0 413.03l0 26.93 27.11 0 0 -26.93 -27.11 0zm-145.25 0l-27.11 0 0 26.93 27.11 0 0 -26.93zm0 -57.43l27.11 0 0 -98.7 -50.46 85.02 23.35 13.68zm-48.91 45.65l-12.78 -23.75 -0.12 0.06 -0.12 0.06 13.02 23.63zm-163.76 -8.84l-14.75 22.6 0.09 0.07 0.1 0.06 14.56 -22.73zm-63.73 -73.62l-24.54 11.45 0.1 0.22 0.12 0.22 24.32 -11.89zm254.17 -175.23l-19.8 18.41 0.16 0.16 0.16 0.17 19.48 -18.74zm-107.45 0l19.49 18.73 0.16 -0.16 0.15 -0.16 -19.8 -18.41zm0 125.9l-20.09 18.09 0.15 0.16 0.14 0.15 19.8 -18.4zm107.45 0l-19.48 -18.73 -0.16 0.16 -0.16 0.17 19.8 18.4zm-250.03 -63.32c0,-39.51 7.07,-72.7 20.33,-100.31l-48.94 -23.19c-17.38,36.2 -25.61,77.61 -25.61,123.5l54.22 0zm20.18 -100.01c13.93,-28.1 32.08,-48.7 54.15,-62.91l-29.49 -45.21c-31.28,20.15 -55.61,48.63 -73.3,84.33l48.64 23.79zm53.96 -62.79c22.7,-14.35 47.75,-21.56 75.85,-21.56l0 -53.87c-38.1,0 -73.31,9.97 -104.96,29.98l29.11 45.45zm75.85 -21.56c25.06,0 45.09,4.92 61.08,13.62l26.05 -47.24c-25.51,-13.88 -54.88,-20.25 -87.13,-20.25l0 53.87zm61.08 13.62c16.72,9.1 29.1,20.99 37.84,35.71l46.7 -27.37c-13.99,-23.56 -33.72,-42.11 -58.49,-55.58l-26.05 47.24zm88.3 22.03l0 -57.43 -54.22 0 0 57.43 54.22 0zm-27.11 -30.49l145.25 0 0 -53.88 -145.25 0 0 53.88zm118.13 -26.94l0 413.03 54.23 0 0 -413.03 -54.23 0zm27.12 386.09l-145.25 0 0 53.87 145.25 0 0 -53.87zm-118.14 26.94l0 -57.43 -54.22 0 0 57.43 54.22 0zm-50.46 -71.11c-8.65,14.55 -21.14,26.43 -38.34,35.58l25.57 47.5c25.28,-13.44 45.39,-31.99 59.47,-55.72l-46.7 -27.36zm-38.58 35.7c-16.06,8.74 -35.87,13.62 -60.34,13.62l0 53.87c31.84,0 60.95,-6.4 86.38,-20.24l-26.04 -47.25zm-60.34 13.62c-28.1,0 -53.15,-7.2 -75.85,-21.55l-29.11 45.45c31.65,20 66.86,29.97 104.96,29.97l0 -53.87zm-75.66 -21.43c-22.07,-14.21 -40.22,-34.82 -54.15,-62.92l-48.64 23.79c17.69,35.71 42.02,64.19 73.3,84.33l29.49 -45.2zm-53.93 -62.47c-13.33,-28.19 -20.4,-61.7 -20.4,-101.2l-54.22 0c0,45.91 8.23,87.5 25.54,124.1l49.08 -22.9zm278.97 -101.2c0,-31.64 -8.99,-59.88 -29.86,-81.31l-38.96 37.47c8.77,9 14.6,22.48 14.6,43.84l54.22 0zm-29.54 -80.98c-19.53,-20.74 -44.52,-31.35 -73.15,-31.35l0 53.87c13.84,0 24.42,4.59 33.55,14.29l39.6 -36.81zm-73.15 -31.35c-28.94,0 -54.24,10.47 -73.9,31.35l39.6 36.81c8.99,-9.55 19.75,-14.29 34.3,-14.29l0 -53.87zm-73.59 31.04c-20.61,21.18 -29.11,49.61 -29.11,81.29l54.22 0c0,-22.3 5.83,-35.59 13.87,-43.85l-38.98 -37.44zm-29.11 81.29c0,31.45 8.61,59.59 28.51,81.41l40.18 -36.18c-8.75,-9.59 -14.47,-23.66 -14.47,-45.23l-54.22 0zm28.8 81.72c19.66,20.88 44.96,31.36 73.9,31.36l0 -53.87c-14.55,0 -25.31,-4.74 -34.3,-14.29l-39.6 36.8zm73.9 31.36c28.63,0 53.62,-10.62 73.15,-31.36l-39.6 -36.8c-9.13,9.69 -19.71,14.29 -33.55,14.29l0 53.87zm72.83 -31.03c20.96,-21.52 29.86,-50.07 29.86,-82.05l-54.22 0c0,22.02 -5.92,35.68 -14.6,44.59l38.96 37.46zm616.83 -244.02l-20.53 17.58 0.13 0.17 0.16 0.17 20.24 -17.92zm42.23 368.86l0 26.93 27.11 0 0 -26.93 -27.11 0zm-145.23 0l-27.11 0 0 26.93 27.11 0 0 -26.93zm-18.52 -276.83l-20.25 17.94 0.19 0.18 0.15 0.18 19.91 -18.3zm-100.79 0l19.89 18.3 0.18 -0.18 0.15 -0.18 -20.22 -17.94zm-18.52 276.83l0 26.93 27.11 0 0 -26.93 -27.11 0zm-145.25 0l-27.11 0 0 26.93 27.11 0 0 -26.93zm0 -544.82l0 -26.93 -27.11 0 0 26.93 27.11 0zm145.25 0l27.11 0 0 -26.93 -27.11 0 0 26.93zm0 190.69l-27.11 0 0 87.06 49.47 -71.85 -22.36 -15.21zm51.87 -44.91l12.56 23.87 0.09 -0.05 0.11 -0.06 -12.76 -23.76zm76.32 9.26c40.59,0 70.24,13.29 92.11,38.5l41.07 -35.16c-33.46,-38.59 -78.92,-57.21 -133.18,-57.21l0 53.87zm92.4 38.84c22.59,25.21 35.36,60.88 35.36,110.19l54.22 0c0,-58.67 -15.37,-108.4 -49.1,-146.02l-40.48 35.83zm35.36 110.19l0 240.75 54.22 0 0 -240.75 -54.22 0zm27.11 213.81l-145.23 0 0 53.87 145.23 0 0 -53.87zm-118.12 26.94l0 -221.61 -54.22 0 0 221.61 54.22 0zm0 -221.61c0,-28.22 -7.47,-53.92 -25.75,-73.52l-39.79 36.6c6.44,6.91 11.32,18.02 11.32,36.92l54.22 0zm-25.41 -73.16c-18.14,-20.18 -42.43,-29.61 -69.88,-29.61l0 53.87c14.05,0 22.86,4.32 29.41,11.62l40.47 -35.88zm-69.88 -29.61c-27.99,0 -52.96,9.15 -71.35,29.61l40.44 35.88c6.31,-7.02 15.43,-11.62 30.91,-11.62l0 -53.87zm-71.03 29.25c-18.25,19.6 -25.73,45.3 -25.73,73.52l54.22 0c0,-18.9 4.86,-30.01 11.3,-36.92l-39.79 -36.6zm-25.73 73.52l0 221.61 54.22 0 0 -221.61 -54.22 0zm27.11 194.67l-145.25 0 0 53.87 145.25 0 0 -53.87zm-118.14 26.94l0 -544.82 -54.22 0 0 544.82 54.22 0zm-27.11 -517.88l145.25 0 0 -53.87 -145.25 0 0 53.87zm118.14 -26.94l0 190.69 54.22 0 0 -190.69 -54.22 0zm49.47 205.9c10.15,-14.73 23.95,-26.84 42.07,-36.25l-25.12 -47.74c-25.35,13.17 -46.13,30.99 -61.7,53.57l44.75 30.42zm42.27 -36.36c17.78,-9.42 38.75,-14.5 63.56,-14.5l0 -53.87c-32.49,0 -62.4,6.71 -89.08,20.84l25.52 47.53zm379.64 354.66l-12.69 23.8 0.06 0.04 0.07 0.03 12.56 -23.87zm-77.06 -73.62l23.41 -13.6 0 0 -23.41 13.6zm0 -224.55l-23.25 -13.86 -0.09 0.13 -0.06 0.13 23.4 13.6zm77.81 -73.63l-12.56 -23.87 -0.07 0.04 -0.07 0.04 12.7 23.79zm223.05 0l-12.72 23.8 0.09 0.04 0.07 0.04 12.56 -23.88zm77.81 73.63l-23.41 13.59 0.07 0.13 0.09 0.14 23.25 -13.86zm0 224.55l-23.36 -13.71 -0.02 0.06 -0.03 0.05 23.41 13.6zm-77.81 73.62l-12.56 -23.87 12.56 23.87zm-61.52 -121.48l-20.1 -18.05 -0.03 0.02 -0.02 0.01 20.15 18.02zm0 -128.84l-20.15 18.02 0.16 0.18 0.18 0.18 19.81 -18.38zm-100.03 128.84l-20.5 17.64 0 0 20.5 -17.64zm49.65 120.31c-37.61,0 -70.53,-7.75 -99.34,-22.7l-25.12 47.74c37.39,19.41 79.08,28.83 124.46,28.83l0 -53.87zm-99.2 -22.63c-28.1,-14.81 -50.11,-35.8 -66.35,-63.42l-46.81 27.19c21.28,36.19 50.67,64.28 87.77,83.83l25.39 -47.6zm-66.35 -63.42c-15.98,-27.12 -24.47,-59.82 -24.47,-99.05l-54.22 0c0,47.16 10.28,89.56 31.88,126.24l46.81 -27.19zm-24.47 -99.05c0,-38.67 8.47,-71.13 24.47,-98.31l-46.81 -27.19c-21.56,36.64 -31.88,78.78 -31.88,125.5l54.22 0zm24.31 -98.04c16.76,-27.77 39.08,-48.84 67.26,-63.69l-25.4 -47.59c-37.05,19.51 -66.6,47.52 -88.36,83.56l46.5 27.72zm67.1 -63.61c28.83,-14.95 61.72,-22.71 99.36,-22.71l0 -53.87c-45.39,0 -87.07,9.43 -124.46,28.83l25.1 47.75zm99.36 -22.71c37.61,0 70.21,7.76 98.43,22.63l25.42 -47.59c-36.98,-19.49 -78.49,-28.91 -123.85,-28.91l0 53.87zm98.59 22.71c28.6,14.84 50.77,35.83 66.96,63.34l46.82 -27.19c-21.38,-36.29 -51.09,-64.39 -88.68,-83.9l-25.1 47.75zm67.12 63.61c16.38,27.12 25.03,59.49 25.03,98.04l54.23 0c0,-46.84 -10.62,-89.08 -32.76,-125.76l-46.5 27.72zm25.03 98.04c0,38.55 -8.65,71.24 -25.14,98.94l46.7 27.41c22.05,-37.08 32.67,-79.49 32.67,-126.35l-54.23 0zm-25.19 99.05c-16.19,27.52 -38.36,48.5 -66.96,63.35l25.1 47.74c37.59,-19.51 67.3,-47.6 88.68,-83.9l-46.82 -27.19zm-66.96 63.35c-28.8,14.95 -61.72,22.7 -99.34,22.7l0 53.87c45.37,0 87.05,-9.42 124.44,-28.83l-25.1 -47.74zm-99.34 -48.59c27.79,0 51.97,-10.5 70.54,-31l-40.31 -36.04c-8.11,8.95 -17.53,13.17 -30.23,13.17l0 53.87zm70.51 -30.96c19.75,-21.73 27.75,-50.65 27.75,-82.85l-54.22 0c0,23.76 -5.86,38.03 -13.76,46.74l40.23 36.11zm27.75 -82.85c0,-32.12 -7.98,-61.05 -28.06,-82.43l-39.63 36.76c7.59,8.08 13.47,21.85 13.47,45.67l54.22 0zm-27.72 -82.07c-18.44,-20.34 -42.27,-31 -69.79,-31l0 53.87c11.99,0 21.24,4.06 29.48,13.17l40.31 -36.04zm-69.79 -31c-27.54,0 -51.38,10.66 -69.81,31l40.3 36.04c8.25,-9.11 17.51,-13.17 29.51,-13.17l0 -53.87zm-69.81 31c-19.36,21.38 -26.98,50.18 -26.98,82.07l54.22 0c0,-24.05 5.74,-37.96 13.06,-46.03l-40.3 -36.04zm-26.98 82.07c0,32.03 7.19,60.98 25.89,82.43l40.99 -35.28c-6.98,-7.99 -12.66,-22.24 -12.66,-47.15l-54.22 0zm25.89 82.43c18.19,20.85 42.32,31.38 70.15,31.38l0 -53.87c-12.69,0 -21.66,-4.18 -29.16,-12.79l-40.99 35.28zm493.08 -215.68l-27.11 0 0 86.72 49.45 -71.46 -22.34 -15.26zm134.13 -76.57l27.11 0 0 -26.94 -27.11 0 0 26.94zm0 153.87l0 26.94 27.11 0 0 -26.94 -27.11 0zm-111.15 18.41l17.01 20.96 0 0 -17.01 -20.96zm-22.98 244.43l0 26.93 27.11 0 0 -26.93 -27.11 0zm-145.25 0l-27.11 0 0 26.93 27.11 0 0 -26.93zm0 -413.03l0 -26.94 -27.11 0 0 26.94 27.11 0zm145.25 0l27.11 0 0 -26.94 -27.11 0 0 26.94zm22.34 88.15c14.24,-20.57 31.18,-36.45 50.81,-48.08l-27.74 -46.28c-26.8,15.86 -49.39,37.29 -67.75,63.84l44.68 30.52zm50.81 -48.08c19.09,-11.29 39.25,-16.82 60.98,-16.82l0 -53.87c-31.63,0 -61.36,8.22 -88.72,24.41l27.74 46.28zm33.87 -43.75l0 153.87 54.22 0 0 -153.87 -54.22 0zm27.11 126.94l-40.76 0 0 53.87 40.76 0 0 -53.87zm-40.76 0c-34.31,0 -65.13,6.51 -87.41,24.37l34.03 41.93c8.33,-6.67 24.44,-12.43 53.38,-12.43l0 -53.87zm-87.41 24.37c-24.58,19.69 -33.07,51.01 -33.07,85.02l54.22 0c0,-26.86 6.82,-38.24 12.88,-43.09l-34.03 -41.93zm-33.07 85.02l0 180.38 54.22 0 0 -180.38 -54.22 0zm27.11 153.44l-145.25 0 0 53.87 145.25 0 0 -53.87zm-118.14 26.94l0 -413.03 -54.22 0 0 413.03 54.22 0zm-27.11 -386.09l145.25 0 0 -53.88 -145.25 0 0 53.88zm118.14 -26.94l0 72.89 54.22 0 0 -72.89 -54.22 0zm212.57 94.24l-24.33 -11.9 -0.07 0.15 -0.07 0.15 24.47 11.6zm63.73 -73.63l-14.57 -22.72 -0.09 0.06 -0.09 0.06 14.75 22.6zm164.49 -8.83l-13.01 23.62 0 0 13.01 -23.62zm48.17 45.65l-23.34 13.68 50.45 85.01 0 -98.69 -27.11 0zm0 -57.43l0 -26.94 -27.11 0 0 26.94 27.11 0zm145.25 0l27.11 0 0 -26.94 -27.11 0 0 26.94zm0 413.03l0 26.93 27.11 0 0 -26.93 -27.11 0zm-145.25 0l-27.11 0 0 26.93 27.11 0 0 -26.93zm0 -57.43l27.11 0 0 -98.7 -50.45 85.02 23.34 13.68zm-48.91 45.65l-12.79 -23.75 -0.11 0.06 -0.11 0.06 13.01 23.63zm-163.75 -8.84l-14.75 22.6 0.09 0.07 0.09 0.06 14.57 -22.73zm-63.73 -73.62l-24.54 11.45 0.09 0.22 0.12 0.22 24.33 -11.89zm254.16 -175.23l-19.79 18.41 0.16 0.16 0.16 0.17 19.47 -18.74zm-107.45 0l19.5 18.73 0.16 -0.16 0.16 -0.16 -19.82 -18.41zm0 125.9l-20.08 18.09 0.13 0.16 0.16 0.15 19.79 -18.4zm107.45 0l-19.47 -18.73 -0.16 0.16 -0.16 0.17 19.79 18.4zm-250.03 -63.32c0,-39.51 7.07,-72.7 20.34,-100.31l-48.94 -23.19c-17.37,36.2 -25.62,77.61 -25.62,123.5l54.22 0zm20.18 -100.01c13.94,-28.1 32.08,-48.7 54.15,-62.91l-29.48 -45.21c-31.29,20.15 -55.62,48.63 -73.31,84.33l48.64 23.79zm53.97 -62.79c22.68,-14.35 47.76,-21.56 75.84,-21.56l0 -53.87c-38.09,0 -73.31,9.97 -104.96,29.98l29.12 45.45zm75.84 -21.56c25.06,0 45.1,4.92 61.09,13.62l26.05 -47.24c-25.51,-13.88 -54.88,-20.25 -87.14,-20.25l0 53.87zm61.09 13.62c16.72,9.1 29.1,20.99 37.84,35.71l46.7 -27.37c-13.98,-23.56 -33.73,-42.11 -58.49,-55.58l-26.05 47.24zm88.29 22.03l0 -57.43 -54.22 0 0 57.43 54.22 0zm-27.11 -30.49l145.25 0 0 -53.88 -145.25 0 0 53.88zm118.14 -26.94l0 413.03 54.22 0 0 -413.03 -54.22 0zm27.11 386.09l-145.25 0 0 53.87 145.25 0 0 -53.87zm-118.14 26.94l0 -57.43 -54.22 0 0 57.43 54.22 0zm-50.45 -71.11c-8.65,14.55 -21.14,26.43 -38.36,35.58l25.58 47.5c25.28,-13.44 45.41,-31.99 59.48,-55.72l-46.7 -27.36zm-38.58 35.7c-16.07,8.74 -35.88,13.62 -60.35,13.62l0 53.87c31.86,0 60.96,-6.4 86.39,-20.24l-26.04 -47.25zm-60.35 13.62c-28.08,0 -53.16,-7.2 -75.84,-21.55l-29.12 45.45c31.65,20 66.87,29.97 104.96,29.97l0 -53.87zm-75.66 -21.43c-22.07,-14.21 -40.21,-34.82 -54.15,-62.92l-48.64 23.79c17.69,35.71 42.02,64.19 73.31,84.33l29.48 -45.2zm-53.93 -62.47c-13.33,-28.19 -20.4,-61.7 -20.4,-101.2l-54.22 0c0,45.91 8.25,87.5 25.55,124.1l49.07 -22.9zm278.97 -101.2c0,-31.64 -8.99,-59.88 -29.84,-81.31l-38.97 37.47c8.76,9 14.59,22.48 14.59,43.84l54.22 0zm-29.53 -80.98c-19.54,-20.74 -44.53,-31.35 -73.15,-31.35l0 53.87c13.85,0 24.42,4.59 33.55,14.29l39.6 -36.81zm-73.15 -31.35c-28.94,0 -54.24,10.47 -73.9,31.35l39.61 36.81c8.99,-9.55 19.74,-14.29 34.29,-14.29l0 -53.87zm-73.6 31.04c-20.61,21.18 -29.1,49.61 -29.1,81.29l54.22 0c0,-22.3 5.83,-35.59 13.87,-43.85l-38.99 -37.44zm-29.1 81.29c0,31.45 8.6,59.59 28.51,81.41l40.17 -36.18c-8.75,-9.59 -14.46,-23.66 -14.46,-45.23l-54.22 0zm28.8 81.72c19.66,20.88 44.96,31.36 73.9,31.36l0 -53.87c-14.55,0 -25.3,-4.74 -34.29,-14.29l-39.61 36.8zm73.9 31.36c28.62,0 53.61,-10.62 73.15,-31.36l-39.6 -36.8c-9.13,9.69 -19.7,14.29 -33.55,14.29l0 53.87zm72.84 -31.03c20.94,-21.52 29.84,-50.07 29.84,-82.05l-54.22 0c0,22.02 -5.92,35.68 -14.59,44.59l38.97 37.46zm424.89 -420.71l27.09 1.3 1.35 -28.24 -28.44 0 0 26.94zm-17.04 351.18l0 26.94 25.83 0 1.24 -25.64 -27.07 -1.3zm-123.76 0l-27.08 1.3 1.24 25.64 25.84 0 0 -26.94zm-17.03 -351.18l0 -26.94 -28.47 0 1.38 28.24 27.09 -1.3zm17.03 530.82l-18.52 19.67 0.34 0.31 0.34 0.29 17.84 -20.27zm0 -107.49l-18.2 -19.96 -0.16 0.15 -0.16 0.14 18.52 19.67zm123.02 0l-18.53 19.67 0.16 0.15 0.16 0.14 18.21 -19.96zm0 106.76l-18.21 -19.96 -0.16 0.14 -0.16 0.15 18.53 19.67zm-9.31 -531.39l-17.03 351.18 54.15 2.6 17.06 -351.18 -54.18 -2.6zm10.05 325.55l-123.76 0 0 53.87 123.76 0 0 -53.87zm-96.67 25.63l-17.05 -351.18 -54.16 2.6 17.04 351.18 54.17 -2.6zm-44.12 -322.95l157.83 0 0 -53.87 -157.83 0 0 53.87zm79.28 497.57c-20.65,0 -34.57,-5.41 -44.4,-13.95l-35.69 40.54c21.78,18.94 49.36,27.28 80.09,27.28l0 -53.87zm-43.72 -13.35c-9.62,-8.93 -14.39,-19.63 -14.39,-34.07l-54.22 0c0,28.74 10.55,53.88 31.56,73.41l37.05 -39.34zm-14.39 -34.07c0,-14.45 4.77,-25.14 14.39,-34.08l-37.05 -39.34c-21.01,19.53 -31.56,44.67 -31.56,73.42l54.22 0zm14.07 -33.79c9.85,-8.86 23.64,-14.37 44.04,-14.37l0 -53.87c-30.98,0 -58.68,8.72 -80.45,28.32l36.41 39.92zm44.04 -14.37c19.79,0 32.94,5.42 42.24,14.08l37.06 -39.34c-21.33,-19.81 -48.69,-28.61 -79.3,-28.61l0 53.87zm42.56 14.37c10.01,9.02 14.8,19.63 14.8,33.79l54.22 0c0,-29.04 -11,-54.26 -32.6,-73.71l-36.42 39.92zm14.8 33.79c0,13.46 -4.63,23.89 -14.8,33.05l36.42 39.91c21.44,-19.31 32.6,-44.22 32.6,-72.96l-54.22 0zm-15.12 33.34c-9.3,8.65 -22.45,14.08 -42.24,14.08l0 53.87c30.61,0 57.97,-8.81 79.3,-28.62l-37.06 -39.33z"/>
  </g>
 </g>
</svg>
