<svg width="1613" height="916" viewBox="0 0 1613 916" fill="none" xmlns="http://www.w3.org/2000/svg">
<path d="M740.662 471.171L743.444 475.565L748.341 473.815L848.001 438.211L909.701 459.456C925.007 464.726 937.592 475.86 944.688 490.409C951.784 504.959 952.81 521.731 947.54 537.037C936.506 569.082 902.004 585.91 869.959 574.876L359.111 398.977C343.806 393.707 331.221 382.572 324.124 368.023C317.028 353.474 316.002 336.701 321.273 321.396C326.543 306.09 337.677 293.505 352.227 286.409C366.776 279.312 383.548 278.287 398.854 283.557L684.049 381.758L740.662 471.171ZM399.673 198.663C399.873 198.224 400.085 197.763 400.31 197.282C402.565 192.472 406.122 185.642 411.275 177.718C421.585 161.864 438.237 141.701 463.576 124.526C513.945 90.3854 600.051 67.1274 742.227 116.083C884.403 165.038 937.936 236.377 956.608 294.29C966.002 323.425 966.71 349.566 965.074 368.407C964.256 377.823 962.854 385.395 961.669 390.573C961.551 391.091 961.434 391.585 961.321 392.054L399.673 198.663ZM357.005 612.532C307.399 595.451 281.151 541.635 298.232 492.029L307.11 466.247L869.521 659.901L860.644 685.683C843.563 735.289 789.747 761.537 740.141 744.456L357.005 612.532Z" fill="#FFE34E" stroke="black" stroke-width="13"/>
<path d="M82.9128 708.908H154.745V758.108H18.6248V526.868H82.9128V708.908ZM265.35 760.404C246.982 760.404 230.473 756.577 215.822 748.924C201.39 741.271 190.019 730.337 181.71 716.124C173.401 701.911 169.246 685.183 169.246 665.94C169.246 646.916 173.401 630.297 181.71 616.084C190.238 601.871 201.718 590.937 216.15 583.284C230.801 575.631 247.31 571.804 265.678 571.804C284.046 571.804 300.446 575.631 314.878 583.284C329.529 590.937 341.009 601.871 349.318 616.084C357.846 630.297 362.11 646.916 362.11 665.94C362.11 684.964 357.846 701.692 349.318 716.124C341.009 730.337 329.529 741.271 314.878 748.924C300.227 756.577 283.718 760.404 265.35 760.404ZM265.35 704.644C274.315 704.644 281.75 701.364 287.654 694.804C293.777 688.025 296.838 678.404 296.838 665.94C296.838 653.476 293.777 643.964 287.654 637.404C281.75 630.844 274.425 627.564 265.678 627.564C256.931 627.564 249.606 630.844 243.702 637.404C237.798 643.964 234.846 653.476 234.846 665.94C234.846 678.623 237.689 688.244 243.374 694.804C249.059 701.364 256.385 704.644 265.35 704.644ZM456.161 571.804C468.625 571.804 479.449 574.319 488.633 579.348C498.036 584.377 505.252 591.156 510.281 599.684V574.1H574.569V756.14C574.569 773.415 571.289 788.94 564.729 802.716C558.169 816.711 547.892 827.863 533.897 836.172C520.121 844.481 502.628 848.636 481.417 848.636C452.991 848.636 430.249 841.967 413.193 828.628C396.137 815.289 386.407 797.14 384.001 774.18H447.305C448.617 780.084 451.897 784.676 457.145 787.956C462.393 791.236 469.172 792.876 477.481 792.876C499.348 792.876 510.281 780.631 510.281 756.14V732.524C505.252 741.052 498.036 747.831 488.633 752.86C479.449 757.889 468.625 760.404 456.161 760.404C441.511 760.404 428.172 756.577 416.145 748.924C404.337 741.271 394.935 730.337 387.937 716.124C381.159 701.692 377.769 684.964 377.769 665.94C377.769 646.916 381.159 630.297 387.937 616.084C394.935 601.871 404.337 590.937 416.145 583.284C428.172 575.631 441.511 571.804 456.161 571.804ZM510.281 665.94C510.281 654.132 507.001 644.839 500.441 638.06C494.1 631.281 486.228 627.892 476.825 627.892C467.204 627.892 459.223 631.281 452.881 638.06C446.54 644.62 443.369 653.913 443.369 665.94C443.369 677.748 446.54 687.151 452.881 694.148C459.223 700.927 467.204 704.316 476.825 704.316C486.228 704.316 494.1 700.927 500.441 694.148C507.001 687.369 510.281 677.967 510.281 665.94ZM696.811 760.404C678.443 760.404 661.934 756.577 647.283 748.924C632.851 741.271 621.48 730.337 613.171 716.124C604.862 701.911 600.707 685.183 600.707 665.94C600.707 646.916 604.862 630.297 613.171 616.084C621.699 601.871 633.179 590.937 647.611 583.284C662.262 575.631 678.771 571.804 697.139 571.804C715.507 571.804 731.907 575.631 746.339 583.284C760.99 590.937 772.47 601.871 780.779 616.084C789.307 630.297 793.571 646.916 793.571 665.94C793.571 684.964 789.307 701.692 780.779 716.124C772.47 730.337 760.99 741.271 746.339 748.924C731.688 756.577 715.179 760.404 696.811 760.404ZM696.811 704.644C705.776 704.644 713.211 701.364 719.115 694.804C725.238 688.025 728.299 678.404 728.299 665.94C728.299 653.476 725.238 643.964 719.115 637.404C713.211 630.844 705.886 627.564 697.139 627.564C688.392 627.564 681.067 630.844 675.163 637.404C669.259 643.964 666.307 653.476 666.307 665.94C666.307 678.623 669.15 688.244 674.835 694.804C680.52 701.364 687.846 704.644 696.811 704.644ZM928.294 703.332V758.108H900.414C853.401 758.108 829.894 734.82 829.894 688.244V627.564H807.262V574.1H829.894V529.492H894.51V574.1H927.966V627.564H894.51V689.228C894.51 694.257 895.604 697.865 897.79 700.052C900.196 702.239 904.132 703.332 909.598 703.332H928.294ZM990.253 557.044C978.882 557.044 969.698 553.983 962.701 547.86C955.922 541.519 952.533 533.647 952.533 524.244C952.533 514.623 955.922 506.641 962.701 500.3C969.698 493.959 978.882 490.788 990.253 490.788C1001.41 490.788 1010.37 493.959 1017.15 500.3C1024.15 506.641 1027.65 514.623 1027.65 524.244C1027.65 533.647 1024.15 541.519 1017.15 547.86C1010.37 553.983 1001.41 557.044 990.253 557.044ZM1022.07 574.1V758.108H957.781V574.1H1022.07ZM1122.97 599.684C1128 591.156 1135.1 584.377 1144.29 579.348C1153.47 574.319 1164.3 571.804 1176.76 571.804C1191.41 571.804 1204.64 575.631 1216.45 583.284C1228.47 590.937 1237.88 601.871 1244.66 616.084C1251.65 630.297 1255.15 646.916 1255.15 665.94C1255.15 684.964 1251.65 701.692 1244.66 716.124C1237.88 730.337 1228.47 741.271 1216.45 748.924C1204.64 756.577 1191.41 760.404 1176.76 760.404C1164.3 760.404 1153.47 757.889 1144.29 752.86C1135.32 747.831 1128.22 741.052 1122.97 732.524V846.012H1058.68V574.1H1122.97V599.684ZM1189.88 665.94C1189.88 653.913 1186.6 644.62 1180.04 638.06C1173.7 631.281 1165.83 627.892 1156.42 627.892C1147.02 627.892 1139.04 631.281 1132.48 638.06C1126.14 644.839 1122.97 654.132 1122.97 665.94C1122.97 677.967 1126.14 687.369 1132.48 694.148C1139.04 700.927 1147.02 704.316 1156.42 704.316C1165.83 704.316 1173.7 700.927 1180.04 694.148C1186.6 687.151 1189.88 677.748 1189.88 665.94ZM1367.23 760.404C1348.86 760.404 1332.35 756.577 1317.7 748.924C1303.27 741.271 1291.89 730.337 1283.59 716.124C1275.28 701.911 1271.12 685.183 1271.12 665.94C1271.12 646.916 1275.28 630.297 1283.59 616.084C1292.11 601.871 1303.59 590.937 1318.03 583.284C1332.68 575.631 1349.19 571.804 1367.55 571.804C1385.92 571.804 1402.32 575.631 1416.75 583.284C1431.4 590.937 1442.88 601.871 1451.19 616.084C1459.72 630.297 1463.99 646.916 1463.99 665.94C1463.99 684.964 1459.72 701.692 1451.19 716.124C1442.88 730.337 1431.4 741.271 1416.75 748.924C1402.1 756.577 1385.59 760.404 1367.23 760.404ZM1367.23 704.644C1376.19 704.644 1383.63 701.364 1389.53 694.804C1395.65 688.025 1398.71 678.404 1398.71 665.94C1398.71 653.476 1395.65 643.964 1389.53 637.404C1383.63 630.844 1376.3 627.564 1367.55 627.564C1358.81 627.564 1351.48 630.844 1345.58 637.404C1339.67 643.964 1336.72 653.476 1336.72 665.94C1336.72 678.623 1339.56 688.244 1345.25 694.804C1350.93 701.364 1358.26 704.644 1367.23 704.644Z" fill="#FFFCEB"/>
<path d="M82.9128 708.908H70.9128V720.908H82.9128V708.908ZM154.745 708.908H166.745V696.908H154.745V708.908ZM154.745 758.108V770.108H166.745V758.108H154.745ZM18.6248 758.108H6.62484V770.108H18.6248V758.108ZM18.6248 526.868V514.868H6.62484V526.868H18.6248ZM82.9128 526.868H94.9128V514.868H82.9128V526.868ZM82.9128 720.908H154.745V696.908H82.9128V720.908ZM142.745 708.908V758.108H166.745V708.908H142.745ZM154.745 746.108H18.6248V770.108H154.745V746.108ZM30.6248 758.108V526.868H6.62484V758.108H30.6248ZM18.6248 538.868H82.9128V514.868H18.6248V538.868ZM70.9128 526.868V708.908H94.9128V526.868H70.9128ZM215.822 748.924L210.2 759.525L210.233 759.543L210.266 759.56L215.822 748.924ZM181.71 716.124L192.07 710.068L192.07 710.068L181.71 716.124ZM181.71 616.084L171.42 609.91L171.385 609.969L171.35 610.028L181.71 616.084ZM216.15 583.284L210.594 572.648L210.561 572.665L210.528 572.682L216.15 583.284ZM314.878 583.284L309.256 593.885L309.289 593.903L309.322 593.92L314.878 583.284ZM349.318 616.084L338.958 622.14L338.993 622.199L339.028 622.258L349.318 616.084ZM349.318 716.124L338.987 710.019L338.973 710.043L338.958 710.068L349.318 716.124ZM314.878 748.924L309.322 738.288L314.878 748.924ZM287.654 694.804L278.749 686.76L278.742 686.768L278.735 686.776L287.654 694.804ZM287.654 637.404L278.735 645.431L278.807 645.512L278.881 645.592L287.654 637.404ZM243.374 694.804L234.306 702.663L234.306 702.663L243.374 694.804ZM265.35 748.404C248.698 748.404 234.13 744.949 221.378 738.288L210.266 759.56C226.815 768.205 245.266 772.404 265.35 772.404V748.404ZM221.444 738.322C208.999 731.723 199.262 722.371 192.07 710.068L171.35 722.18C180.776 738.304 193.781 750.818 210.2 759.525L221.444 738.322ZM192.07 710.068C185.004 697.982 181.246 683.417 181.246 665.94H157.246C157.246 686.948 161.797 705.84 171.35 722.18L192.07 710.068ZM181.246 665.94C181.246 648.709 184.992 634.247 192.07 622.14L171.35 610.028C161.809 626.348 157.246 645.123 157.246 665.94H181.246ZM192 622.258C199.421 609.889 209.3 600.5 221.772 593.885L210.528 572.682C194.136 581.375 181.055 593.852 171.42 609.91L192 622.258ZM221.706 593.92C234.458 587.259 249.026 583.804 265.678 583.804V559.804C245.594 559.804 227.143 564.002 210.594 572.648L221.706 593.92ZM265.678 583.804C282.333 583.804 296.762 587.26 309.256 593.885L320.5 572.682C304.13 564.001 285.759 559.804 265.678 559.804V583.804ZM309.322 593.92C321.981 600.533 331.793 609.883 338.958 622.14L359.678 610.028C350.225 593.858 337.076 581.341 320.434 572.648L309.322 593.92ZM339.028 622.258C346.28 634.344 350.11 648.764 350.11 665.94H374.11C374.11 645.068 369.412 626.25 359.608 609.91L339.028 622.258ZM350.11 665.94C350.11 683.112 346.281 697.675 338.987 710.019L359.649 722.229C369.411 705.709 374.11 686.816 374.11 665.94H350.11ZM338.958 710.068C331.793 722.325 321.981 731.675 309.322 738.288L320.434 759.56C337.076 750.866 350.225 738.35 359.678 722.18L338.958 710.068ZM309.322 738.288C296.57 744.949 282.002 748.404 265.35 748.404V772.404C285.434 772.404 303.885 768.205 320.434 759.56L309.322 738.288ZM265.35 716.644C277.656 716.644 288.353 711.965 296.574 702.831L278.735 686.776C275.147 690.762 270.975 692.644 265.35 692.644V716.644ZM296.559 702.847C305.302 693.168 308.838 680.283 308.838 665.94H284.838C284.838 676.525 282.251 682.883 278.749 686.76L296.559 702.847ZM308.838 665.94C308.838 651.628 305.314 638.738 296.427 629.216L278.881 645.592C282.24 649.19 284.838 655.324 284.838 665.94H308.838ZM296.574 629.376C288.417 620.314 277.861 615.564 265.678 615.564V639.564C270.988 639.564 275.083 641.374 278.735 645.431L296.574 629.376ZM265.678 615.564C253.495 615.564 242.939 620.314 234.783 629.376L252.622 645.431C256.273 641.374 260.368 639.564 265.678 639.564V615.564ZM234.783 629.376C226.209 638.902 222.846 651.729 222.846 665.94H246.846C246.846 655.223 249.387 649.026 252.622 645.431L234.783 629.376ZM222.846 665.94C222.846 680.208 226.023 693.106 234.306 702.663L252.442 686.945C249.355 683.382 246.846 677.037 246.846 665.94H222.846ZM234.306 702.663C242.355 711.95 253.035 716.644 265.35 716.644V692.644C259.734 692.644 255.764 690.778 252.442 686.945L234.306 702.663ZM488.633 579.348L482.87 589.873L482.922 589.901L482.974 589.929L488.633 579.348ZM510.281 599.684L499.945 605.78L522.281 643.654V599.684H510.281ZM510.281 574.1V562.1H498.281V574.1H510.281ZM574.569 574.1H586.569V562.1H574.569V574.1ZM564.729 802.716L553.895 797.557L553.879 797.59L553.864 797.623L564.729 802.716ZM533.897 836.172L527.771 825.854L527.735 825.875L527.7 825.896L533.897 836.172ZM413.193 828.628L420.586 819.175L420.586 819.175L413.193 828.628ZM384.001 774.18V762.18H370.679L372.067 775.43L384.001 774.18ZM447.305 774.18L459.02 771.577L456.932 762.18H447.305V774.18ZM457.145 787.956L450.785 798.132L450.785 798.132L457.145 787.956ZM510.281 732.524H522.281V688.553L499.945 726.428L510.281 732.524ZM488.633 752.86L482.974 742.278L482.922 742.306L482.87 742.335L488.633 752.86ZM416.145 748.924L409.619 758.994L409.661 759.021L409.703 759.048L416.145 748.924ZM387.937 716.124L377.076 721.226L377.123 721.325L377.171 721.424L387.937 716.124ZM387.937 616.084L377.171 610.784L377.138 610.851L377.106 610.918L387.937 616.084ZM416.145 583.284L409.703 573.16L409.661 573.187L409.619 573.214L416.145 583.284ZM500.441 638.06L491.678 646.258L491.748 646.332L491.818 646.405L500.441 638.06ZM452.881 638.06L461.509 646.4L461.578 646.33L461.645 646.258L452.881 638.06ZM452.881 694.148L443.99 702.206L444.053 702.276L444.118 702.346L452.881 694.148ZM500.441 694.148L491.818 685.803L491.748 685.876L491.678 685.95L500.441 694.148ZM456.161 583.804C466.994 583.804 475.761 585.98 482.87 589.873L494.397 568.823C483.138 562.657 470.257 559.804 456.161 559.804V583.804ZM482.974 589.929C490.591 594.004 496.12 599.294 499.945 605.78L520.618 593.588C514.384 583.018 505.481 574.751 494.293 568.766L482.974 589.929ZM522.281 599.684V574.1H498.281V599.684H522.281ZM510.281 586.1H574.569V562.1H510.281V586.1ZM562.569 574.1V756.14H586.569V574.1H562.569ZM562.569 756.14C562.569 771.866 559.592 785.593 553.895 797.557L575.564 807.875C582.987 792.287 586.569 774.963 586.569 756.14H562.569ZM553.864 797.623C548.38 809.321 539.814 818.703 527.771 825.854L540.024 846.49C555.97 837.022 567.959 824.1 575.595 807.809L553.864 797.623ZM527.7 825.896C516.3 832.772 501.121 836.636 481.417 836.636V860.636C504.135 860.636 523.943 856.19 540.095 846.447L527.7 825.896ZM481.417 836.636C454.829 836.636 434.952 830.411 420.586 819.175L405.801 838.081C425.546 853.522 451.153 860.636 481.417 860.636V836.636ZM420.586 819.175C406.277 807.985 398.027 792.891 395.936 772.93L372.067 775.43C374.786 801.388 385.998 822.594 405.801 838.081L420.586 819.175ZM384.001 786.18H447.305V762.18H384.001V786.18ZM435.591 776.783C437.619 785.908 442.881 793.192 450.785 798.132L463.505 777.78C460.914 776.16 459.616 774.26 459.02 771.577L435.591 776.783ZM450.785 798.132C458.489 802.947 467.672 804.876 477.481 804.876V780.876C470.673 780.876 466.298 779.525 463.505 777.78L450.785 798.132ZM477.481 804.876C490.639 804.876 502.599 801.129 511.033 791.684C519.235 782.498 522.281 769.921 522.281 756.14H498.281C498.281 766.85 495.861 772.641 493.13 775.7C490.63 778.5 486.191 780.876 477.481 780.876V804.876ZM522.281 756.14V732.524H498.281V756.14H522.281ZM499.945 726.428C496.12 732.914 490.591 738.204 482.974 742.278L494.293 763.441C505.481 757.457 514.384 749.19 520.618 738.62L499.945 726.428ZM482.87 742.335C475.761 746.228 466.994 748.404 456.161 748.404V772.404C470.257 772.404 483.138 769.551 494.397 763.385L482.87 742.335ZM456.161 748.404C443.726 748.404 432.634 745.193 422.588 738.8L409.703 759.048C423.711 767.962 439.295 772.404 456.161 772.404V748.404ZM422.672 738.854C412.903 732.522 404.867 723.344 398.704 710.824L377.171 721.424C385.002 737.33 395.772 750.019 409.619 758.994L422.672 738.854ZM398.799 711.022C392.901 698.465 389.769 683.537 389.769 665.94H365.769C365.769 686.391 369.417 704.919 377.076 721.226L398.799 711.022ZM389.769 665.94C389.769 648.337 392.903 633.549 398.769 621.25L377.106 610.918C369.415 627.046 365.769 645.495 365.769 665.94H389.769ZM398.704 621.384C404.867 608.864 412.903 599.686 422.672 593.354L409.619 573.214C395.772 582.189 385.002 594.877 377.171 610.784L398.704 621.384ZM422.588 593.408C432.634 587.015 443.726 583.804 456.161 583.804V559.804C439.295 559.804 423.711 564.246 409.703 573.16L422.588 593.408ZM522.281 665.94C522.281 651.841 518.303 639.261 509.065 629.715L491.818 646.405C495.7 650.416 498.281 656.423 498.281 665.94H522.281ZM509.205 629.862C500.561 620.622 489.501 615.892 476.825 615.892V639.892C482.956 639.892 487.639 641.94 491.678 646.258L509.205 629.862ZM476.825 615.892C464.02 615.892 452.82 620.56 444.118 629.862L461.645 646.258C465.625 642.003 470.389 639.892 476.825 639.892V615.892ZM444.254 629.72C435.13 639.158 431.369 651.823 431.369 665.94H455.369C455.369 656.004 457.95 650.082 461.509 646.4L444.254 629.72ZM431.369 665.94C431.369 679.95 435.182 692.487 443.99 702.206L461.773 686.09C457.899 681.814 455.369 675.545 455.369 665.94H431.369ZM444.118 702.346C452.82 711.648 464.02 716.316 476.825 716.316V692.316C470.389 692.316 465.625 690.205 461.645 685.95L444.118 702.346ZM476.825 716.316C489.501 716.316 500.561 711.585 509.205 702.346L491.678 685.95C487.639 690.268 482.956 692.316 476.825 692.316V716.316ZM509.065 702.493C518.341 692.907 522.281 680.187 522.281 665.94H498.281C498.281 675.746 495.661 681.832 491.818 685.803L509.065 702.493ZM647.283 748.924L641.661 759.525L641.694 759.543L641.727 759.56L647.283 748.924ZM613.171 716.124L623.531 710.068L623.531 710.068L613.171 716.124ZM613.171 616.084L602.881 609.91L602.846 609.969L602.811 610.028L613.171 616.084ZM647.611 583.284L642.055 572.648L642.022 572.665L641.989 572.682L647.611 583.284ZM746.339 583.284L740.717 593.885L740.75 593.903L740.783 593.92L746.339 583.284ZM780.779 616.084L770.419 622.14L770.454 622.199L770.489 622.258L780.779 616.084ZM780.779 716.124L770.448 710.019L770.434 710.043L770.419 710.068L780.779 716.124ZM746.339 748.924L740.783 738.288L746.339 748.924ZM719.115 694.804L710.21 686.76L710.203 686.768L710.195 686.776L719.115 694.804ZM719.115 637.404L710.195 645.431L710.268 645.512L710.342 645.592L719.115 637.404ZM674.835 694.804L665.767 702.663L665.767 702.663L674.835 694.804ZM696.811 748.404C680.159 748.404 665.591 744.949 652.839 738.288L641.727 759.56C658.276 768.205 676.727 772.404 696.811 772.404V748.404ZM652.905 738.322C640.46 731.723 630.723 722.371 623.531 710.068L602.811 722.18C612.237 738.304 625.242 750.818 641.661 759.525L652.905 738.322ZM623.531 710.068C616.465 697.982 612.707 683.417 612.707 665.94H588.707C588.707 686.948 593.258 705.84 602.811 722.18L623.531 710.068ZM612.707 665.94C612.707 648.709 616.453 634.247 623.531 622.14L602.811 610.028C593.27 626.348 588.707 645.123 588.707 665.94H612.707ZM623.461 622.258C630.882 609.889 640.761 600.5 653.233 593.885L641.989 572.682C625.597 581.375 612.516 593.852 602.881 609.91L623.461 622.258ZM653.167 593.92C665.919 587.259 680.487 583.804 697.139 583.804V559.804C677.055 559.804 658.604 564.002 642.055 572.648L653.167 593.92ZM697.139 583.804C713.794 583.804 728.223 587.26 740.717 593.885L751.961 572.682C735.591 564.001 717.22 559.804 697.139 559.804V583.804ZM740.783 593.92C753.442 600.533 763.254 609.883 770.419 622.14L791.139 610.028C781.686 593.858 768.537 581.341 751.895 572.648L740.783 593.92ZM770.489 622.258C777.741 634.344 781.571 648.764 781.571 665.94H805.571C805.571 645.068 800.873 626.25 791.069 609.91L770.489 622.258ZM781.571 665.94C781.571 683.112 777.742 697.675 770.448 710.019L791.11 722.229C800.872 705.709 805.571 686.816 805.571 665.94H781.571ZM770.419 710.068C763.254 722.325 753.442 731.675 740.783 738.288L751.895 759.56C768.537 750.866 781.686 738.35 791.139 722.18L770.419 710.068ZM740.783 738.288C728.031 744.949 713.463 748.404 696.811 748.404V772.404C716.895 772.404 735.346 768.205 751.895 759.56L740.783 738.288ZM696.811 716.644C709.117 716.644 719.814 711.965 728.034 702.831L710.195 686.776C706.608 690.762 702.436 692.644 696.811 692.644V716.644ZM728.02 702.847C736.763 693.168 740.299 680.283 740.299 665.94H716.299C716.299 676.525 713.712 682.883 710.21 686.76L728.02 702.847ZM740.299 665.94C740.299 651.628 736.775 638.738 727.888 629.216L710.342 645.592C713.701 649.19 716.299 655.324 716.299 665.94H740.299ZM728.034 629.376C719.878 620.314 709.322 615.564 697.139 615.564V639.564C702.449 639.564 706.544 641.374 710.195 645.431L728.034 629.376ZM697.139 615.564C684.956 615.564 674.4 620.314 666.243 629.376L684.082 645.431C687.734 641.374 691.829 639.564 697.139 639.564V615.564ZM666.243 629.376C657.67 638.902 654.307 651.729 654.307 665.94H678.307C678.307 655.223 680.848 649.026 684.082 645.431L666.243 629.376ZM654.307 665.94C654.307 680.208 657.484 693.106 665.767 702.663L683.903 686.945C680.815 683.382 678.307 677.037 678.307 665.94H654.307ZM665.767 702.663C673.815 711.95 684.496 716.644 696.811 716.644V692.644C691.195 692.644 687.225 690.778 683.903 686.945L665.767 702.663ZM928.294 703.332H940.294V691.332H928.294V703.332ZM928.294 758.108V770.108H940.294V758.108H928.294ZM829.894 627.564H841.894V615.564H829.894V627.564ZM807.262 627.564H795.262V639.564H807.262V627.564ZM807.262 574.1V562.1H795.262V574.1H807.262ZM829.894 574.1V586.1H841.894V574.1H829.894ZM829.894 529.492V517.492H817.894V529.492H829.894ZM894.51 529.492H906.51V517.492H894.51V529.492ZM894.51 574.1H882.51V586.1H894.51V574.1ZM927.966 574.1H939.966V562.1H927.966V574.1ZM927.966 627.564V639.564H939.966V627.564H927.966ZM894.51 627.564V615.564H882.51V627.564H894.51ZM897.79 700.052L889.305 708.537L889.507 708.739L889.718 708.931L897.79 700.052ZM916.294 703.332V758.108H940.294V703.332H916.294ZM928.294 746.108H900.414V770.108H928.294V746.108ZM900.414 746.108C878.729 746.108 864.675 740.742 855.97 732.117C847.285 723.513 841.894 709.654 841.894 688.244H817.894C817.894 713.41 824.257 734.483 839.079 749.167C853.88 763.83 875.086 770.108 900.414 770.108V746.108ZM841.894 688.244V627.564H817.894V688.244H841.894ZM829.894 615.564H807.262V639.564H829.894V615.564ZM819.262 627.564V574.1H795.262V627.564H819.262ZM807.262 586.1H829.894V562.1H807.262V586.1ZM841.894 574.1V529.492H817.894V574.1H841.894ZM829.894 541.492H894.51V517.492H829.894V541.492ZM882.51 529.492V574.1H906.51V529.492H882.51ZM894.51 586.1H927.966V562.1H894.51V586.1ZM915.966 574.1V627.564H939.966V574.1H915.966ZM927.966 615.564H894.51V639.564H927.966V615.564ZM882.51 627.564V689.228H906.51V627.564H882.51ZM882.51 689.228C882.51 695.535 883.807 703.039 889.305 708.537L906.276 691.567C906.853 692.144 906.913 692.55 906.815 692.226C906.702 691.855 906.51 690.931 906.51 689.228H882.51ZM889.718 708.931C895.417 714.111 903.037 715.332 909.598 715.332V691.332C907.609 691.332 906.396 691.127 905.758 690.95C905.145 690.779 905.367 690.722 905.862 691.173L889.718 708.931ZM909.598 715.332H928.294V691.332H909.598V715.332ZM962.701 547.86L954.503 556.623L954.649 556.759L954.799 556.891L962.701 547.86ZM962.701 500.3L954.643 491.408L954.573 491.472L954.503 491.537L962.701 500.3ZM1017.15 500.3L1008.95 509.063L1009.02 509.128L1009.09 509.192L1017.15 500.3ZM1017.15 547.86L1025.19 556.765L1025.2 556.758L1025.21 556.752L1017.15 547.86ZM1022.07 574.1H1034.07V562.1H1022.07V574.1ZM1022.07 758.108V770.108H1034.07V758.108H1022.07ZM957.781 758.108H945.781V770.108H957.781V758.108ZM957.781 574.1V562.1H945.781V574.1H957.781ZM990.253 545.044C981.113 545.044 974.953 542.635 970.603 538.829L954.799 556.891C964.444 565.33 976.652 569.044 990.253 569.044V545.044ZM970.899 539.097C966.581 535.058 964.533 530.374 964.533 524.244H940.533C940.533 536.919 945.264 547.98 954.503 556.623L970.899 539.097ZM964.533 524.244C964.533 517.807 966.644 513.044 970.899 509.063L954.503 491.537C945.201 500.239 940.533 511.438 940.533 524.244H964.533ZM970.759 509.192C975.117 505.243 981.221 502.788 990.253 502.788V478.788C976.544 478.788 964.28 482.674 954.643 491.408L970.759 509.192ZM990.253 502.788C999.01 502.788 1004.83 505.206 1008.95 509.063L1025.35 491.537C1015.91 482.711 1003.8 478.788 990.253 478.788V502.788ZM1009.09 509.192C1013.52 513.21 1015.65 517.937 1015.65 524.244H1039.65C1039.65 511.308 1034.77 500.073 1025.21 491.408L1009.09 509.192ZM1015.65 524.244C1015.65 530.242 1013.59 534.89 1009.09 538.968L1025.21 556.752C1034.7 548.147 1039.65 537.051 1039.65 524.244H1015.65ZM1009.11 538.955C1004.99 542.668 999.121 545.044 990.253 545.044V569.044C1003.69 569.044 1015.75 565.297 1025.19 556.765L1009.11 538.955ZM1010.07 574.1V758.108H1034.07V574.1H1010.07ZM1022.07 746.108H957.781V770.108H1022.07V746.108ZM969.781 758.108V574.1H945.781V758.108H969.781ZM957.781 586.1H1022.07V562.1H957.781V586.1ZM1122.97 599.684H1110.97V643.654L1133.3 605.78L1122.97 599.684ZM1144.29 579.348L1138.52 568.823L1138.52 568.823L1144.29 579.348ZM1216.45 583.284L1209.92 593.354L1209.96 593.381L1210.01 593.408L1216.45 583.284ZM1244.66 616.084L1233.82 621.25L1233.86 621.317L1233.89 621.384L1244.66 616.084ZM1244.66 716.124L1233.86 710.889L1233.84 710.923L1233.82 710.958L1244.66 716.124ZM1216.45 748.924L1210.01 738.8L1209.96 738.827L1209.92 738.854L1216.45 748.924ZM1144.29 752.86L1138.42 763.326L1138.47 763.356L1138.52 763.385L1144.29 752.86ZM1122.97 732.524L1133.19 726.235L1110.97 690.127V732.524H1122.97ZM1122.97 846.012V858.012H1134.97V846.012H1122.97ZM1058.68 846.012H1046.68V858.012H1058.68V846.012ZM1058.68 574.1V562.1H1046.68V574.1H1058.68ZM1122.97 574.1H1134.97V562.1H1122.97V574.1ZM1180.04 638.06L1171.28 646.258L1171.41 646.404L1171.55 646.545L1180.04 638.06ZM1132.48 638.06L1123.86 629.715L1123.79 629.788L1123.72 629.862L1132.48 638.06ZM1132.48 694.148L1123.72 702.346L1123.79 702.42L1123.86 702.493L1132.48 694.148ZM1180.04 694.148L1171.29 685.941L1171.28 685.95L1180.04 694.148ZM1133.3 605.78C1137.17 599.221 1142.65 593.927 1150.05 589.873L1138.52 568.823C1127.56 574.828 1118.82 583.09 1112.63 593.588L1133.3 605.78ZM1150.05 589.873C1157.16 585.98 1165.93 583.804 1176.76 583.804V559.804C1162.66 559.804 1149.78 562.657 1138.52 568.823L1150.05 589.873ZM1176.76 583.804C1189.19 583.804 1200.14 587.014 1209.92 593.354L1222.97 573.214C1209.14 564.247 1193.63 559.804 1176.76 559.804V583.804ZM1210.01 593.408C1219.94 599.728 1227.91 608.848 1233.82 621.25L1255.49 610.918C1247.84 594.893 1237.01 582.146 1222.89 573.16L1210.01 593.408ZM1233.89 621.384C1239.93 633.65 1243.15 648.389 1243.15 665.94H1267.15C1267.15 645.443 1263.38 626.945 1255.42 610.784L1233.89 621.384ZM1243.15 665.94C1243.15 683.485 1239.93 698.365 1233.86 710.889L1255.45 721.359C1263.38 705.019 1267.15 686.443 1267.15 665.94H1243.15ZM1233.82 710.958C1227.91 723.36 1219.94 732.479 1210.01 738.8L1222.89 759.048C1237.01 750.062 1247.84 737.315 1255.49 721.29L1233.82 710.958ZM1209.92 738.854C1200.14 745.194 1189.19 748.404 1176.76 748.404V772.404C1193.63 772.404 1209.14 767.96 1222.97 758.994L1209.92 738.854ZM1176.76 748.404C1165.93 748.404 1157.16 746.228 1150.05 742.335L1138.52 763.385C1149.78 769.551 1162.66 772.404 1176.76 772.404V748.404ZM1150.16 742.394C1142.93 738.336 1137.34 732.975 1133.19 726.235L1112.75 738.813C1119.1 749.128 1127.72 757.325 1138.42 763.326L1150.16 742.394ZM1110.97 732.524V846.012H1134.97V732.524H1110.97ZM1122.97 834.012H1058.68V858.012H1122.97V834.012ZM1070.68 846.012V574.1H1046.68V846.012H1070.68ZM1058.68 586.1H1122.97V562.1H1058.68V586.1ZM1110.97 574.1V599.684H1134.97V574.1H1110.97ZM1201.88 665.94C1201.88 651.715 1197.95 638.997 1188.52 629.575L1171.55 646.545C1175.25 650.243 1177.88 656.112 1177.88 665.94H1201.88ZM1188.8 629.862C1180.16 620.622 1169.1 615.892 1156.42 615.892V639.892C1162.55 639.892 1167.24 641.94 1171.28 646.258L1188.8 629.862ZM1156.42 615.892C1143.76 615.892 1132.67 620.609 1123.86 629.715L1141.1 646.405C1145.41 641.954 1150.28 639.892 1156.42 639.892V615.892ZM1123.72 629.862C1114.77 639.422 1110.97 651.949 1110.97 665.94H1134.97C1134.97 656.315 1137.5 650.256 1141.24 646.258L1123.72 629.862ZM1110.97 665.94C1110.97 680.081 1114.74 692.747 1123.72 702.346L1141.24 685.95C1137.54 681.991 1134.97 675.852 1134.97 665.94H1110.97ZM1123.86 702.493C1132.67 711.599 1143.76 716.316 1156.42 716.316V692.316C1150.28 692.316 1145.41 690.254 1141.1 685.803L1123.86 702.493ZM1156.42 716.316C1169.1 716.316 1180.16 711.585 1188.8 702.346L1171.28 685.95C1167.24 690.268 1162.55 692.316 1156.42 692.316V716.316ZM1188.79 702.355C1197.9 692.647 1201.88 680.056 1201.88 665.94H1177.88C1177.88 675.44 1175.3 681.655 1171.29 685.941L1188.79 702.355ZM1317.7 748.924L1312.07 759.525L1312.11 759.543L1312.14 759.56L1317.7 748.924ZM1283.59 716.124L1293.94 710.068L1293.94 710.068L1283.59 716.124ZM1283.59 616.084L1273.3 609.91L1273.26 609.969L1273.23 610.028L1283.59 616.084ZM1318.03 583.284L1312.47 572.648L1312.44 572.665L1312.4 572.682L1318.03 583.284ZM1416.75 583.284L1411.13 593.885L1411.16 593.903L1411.2 593.92L1416.75 583.284ZM1451.19 616.084L1440.83 622.14L1440.87 622.199L1440.9 622.258L1451.19 616.084ZM1451.19 716.124L1440.86 710.019L1440.85 710.043L1440.83 710.068L1451.19 716.124ZM1416.75 748.924L1411.2 738.288L1416.75 748.924ZM1389.53 694.804L1380.62 686.76L1380.62 686.768L1380.61 686.776L1389.53 694.804ZM1389.53 637.404L1380.61 645.431L1380.68 645.512L1380.76 645.592L1389.53 637.404ZM1345.25 694.804L1336.18 702.663L1336.18 702.663L1345.25 694.804ZM1367.23 748.404C1350.57 748.404 1336.01 744.949 1323.25 738.288L1312.14 759.56C1328.69 768.205 1347.14 772.404 1367.23 772.404V748.404ZM1323.32 738.322C1310.87 731.723 1301.14 722.371 1293.94 710.068L1273.23 722.18C1282.65 738.304 1295.66 750.818 1312.07 759.525L1323.32 738.322ZM1293.94 710.068C1286.88 697.982 1283.12 683.417 1283.12 665.94H1259.12C1259.12 686.948 1263.67 705.84 1273.23 722.18L1293.94 710.068ZM1283.12 665.94C1283.12 648.709 1286.87 634.247 1293.94 622.14L1273.23 610.028C1263.68 626.348 1259.12 645.123 1259.12 665.94H1283.12ZM1293.87 622.258C1301.3 609.889 1311.17 600.5 1323.65 593.885L1312.4 572.682C1296.01 581.375 1282.93 593.852 1273.3 609.91L1293.87 622.258ZM1323.58 593.92C1336.33 587.259 1350.9 583.804 1367.55 583.804V559.804C1347.47 559.804 1329.02 564.002 1312.47 572.648L1323.58 593.92ZM1367.55 583.804C1384.21 583.804 1398.64 587.26 1411.13 593.885L1422.38 572.682C1406.01 564.001 1387.63 559.804 1367.55 559.804V583.804ZM1411.2 593.92C1423.86 600.533 1433.67 609.883 1440.83 622.14L1461.55 610.028C1452.1 593.858 1438.95 581.341 1422.31 572.648L1411.2 593.92ZM1440.9 622.258C1448.16 634.344 1451.99 648.764 1451.99 665.94H1475.99C1475.99 645.068 1471.29 626.25 1461.48 609.91L1440.9 622.258ZM1451.99 665.94C1451.99 683.112 1448.16 697.675 1440.86 710.019L1461.52 722.229C1471.29 705.709 1475.99 686.816 1475.99 665.94H1451.99ZM1440.83 710.068C1433.67 722.325 1423.86 731.675 1411.2 738.288L1422.31 759.56C1438.95 750.866 1452.1 738.35 1461.55 722.18L1440.83 710.068ZM1411.2 738.288C1398.45 744.949 1383.88 748.404 1367.23 748.404V772.404C1387.31 772.404 1405.76 768.205 1422.31 759.56L1411.2 738.288ZM1367.23 716.644C1379.53 716.644 1390.23 711.965 1398.45 702.831L1380.61 686.776C1377.02 690.762 1372.85 692.644 1367.23 692.644V716.644ZM1398.43 702.847C1407.18 693.168 1410.71 680.283 1410.71 665.94H1386.71C1386.71 676.525 1384.13 682.883 1380.62 686.76L1398.43 702.847ZM1410.71 665.94C1410.71 651.628 1407.19 638.738 1398.3 629.216L1380.76 645.592C1384.11 649.19 1386.71 655.324 1386.71 665.94H1410.71ZM1398.45 629.376C1390.29 620.314 1379.74 615.564 1367.55 615.564V639.564C1372.86 639.564 1376.96 641.374 1380.61 645.431L1398.45 629.376ZM1367.55 615.564C1355.37 615.564 1344.81 620.314 1336.66 629.376L1354.5 645.431C1358.15 641.374 1362.24 639.564 1367.55 639.564V615.564ZM1336.66 629.376C1328.08 638.902 1324.72 651.729 1324.72 665.94H1348.72C1348.72 655.223 1351.26 649.026 1354.5 645.431L1336.66 629.376ZM1324.72 665.94C1324.72 680.208 1327.9 693.106 1336.18 702.663L1354.32 686.945C1351.23 683.382 1348.72 677.037 1348.72 665.94H1324.72ZM1336.18 702.663C1344.23 711.95 1354.91 716.644 1367.23 716.644V692.644C1361.61 692.644 1357.64 690.778 1354.32 686.945L1336.18 702.663Z" fill="black"/>
</svg>
